# xmcd CD database file
#
# Track frame offsets:
#	150
#	17412
#	25341
#	36514
#	57063
#	75978
#	92736
#	106458
#
# Disc length: 1606 seconds
#
# Revision: 0
# Processed by: cddbd v1.5.2PL0 Copyright (c) Steve Scherf et al.
# Submitted via: CDex 1.70beta2
#
DISCID=55064408
DTITLE=Kioomars Musayyebi - Entezar
DYEAR=2019
DGENRE=Jazz
TTITLE0=Wo ich noch nicht war
TTITLE1=Auf den ersten Blick
TTITLE2=Schmetterlinge im Bauch
TTITLE3=Tanz der Bl￼ten
TTITLE4=Daheim
TTITLE5=Sanamay Man
TTITLE6=Entezar
TTITLE7=Illusion
EXTD=YEAR: 2019
EXTT0=
EXTT1=
EXTT2=
EXTT3=
EXTT4=
EXTT5=
EXTT6=
EXTT7=
PLAYORDER=
